# xmcd
#
# Track frame offsets: 
#        150
#        28714
#        41263
#        58459
#        76419
#        97954
#        118011
#        135816
#        165417
#        183166
#        197638
#        220013
#        237402
#        257945
#        277979
#        294989
#        309797
#        326244
#
# Disc length: 4669 seconds
#
# Revision: 0
# Processed by: cddbd v1.5.2PL0 Copyright (c) Steve Scherf et al.
# Submitted via: ExactAudioCopyFreeDBPlugin 1.0
#
DISCID=f4123b12
DTITLE=Bonnie Raitt - Same Old Love
DYEAR=2015
DGENRE=Blues
TTITLE0=Baby, I Love You
TTITLE1=I Thank You
TTITLE2=Sugar Mama
TTITLE3=Three Time Loser
TTITLE4=Your Good Thing (Is About To End)
TTITLE5=The Glow
TTITLE6=Angel From Montgomery
TTITLE7=Give It Up (Or Let Me Go)
TTITLE8=Think (Just In Case)
TTITLE9=Walk Out The Front Door
TTITLE10=Danger Heartbreak Dead Ahead
TTITLE11=About To Make Me Leave Home
TTITLE12=Runaway
TTITLE13=You're Gonna Get What's Coming
TTITLE14=Standin'By The Same Old Love
TTITLE15=A Big Hunk O Love
TTITLE16=Gamblin' Man
TTITLE17=Under The Falling Sky
EXTD=
EXTT0=
EXTT1=
EXTT2=
EXTT3=
EXTT4=
EXTT5=
EXTT6=
EXTT7=
EXTT8=
EXTT9=
EXTT10=
EXTT11=
EXTT12=
EXTT13=
EXTT14=
EXTT15=
EXTT16=
EXTT17=
PLAYORDER=
